<svg width="1232" height="1167" viewBox="0 0 1232 1167" fill="none" xmlns="http://www.w3.org/2000/svg">
<path d="M831.967 564.012C947.442 670.057 956.686 847.894 852.613 961.221C748.54 1074.55 570.562 1080.45 455.086 974.406C339.611 868.361 330.368 690.524 434.44 577.197C538.513 463.87 716.492 457.967 831.967 564.012Z" fill="#95D9BC"/>
<path d="M518.795 266.681C596.128 337.698 601.5 457.685 530.794 534.679C460.088 611.672 340.079 616.516 262.746 545.499C185.413 474.481 180.041 354.495 250.747 277.501C321.453 200.508 441.463 195.663 518.795 266.681Z" fill="#FD63AA"/>
<path d="M419.702 345.904L651.642 832.308L519.428 921.807L143.942 532.572L419.702 345.904Z" fill="#B7A0E8"/>
<path d="M396.182 808.869L581.576 683.372L656.074 823.737L499.649 929.625L396.182 808.869Z" fill="#8B79B0"/>
<rect width="633.186" height="26.5254" rx="13.2627" transform="matrix(0.464039 0.885815 0.885815 -0.464039 364.316 291.481)" fill="#323232"/>
<rect x="112.335" y="462.052" width="633.024" height="26.5254" rx="13.2627" transform="rotate(49.4584 112.335 462.052)" fill="#323232"/>
<rect x="91.4615" y="476.181" width="354.056" height="26.5254" rx="13.2627" transform="rotate(-34.0948 91.4615 476.181)" fill="#323232"/>
<rect x="488.478" y="937.187" width="215.663" height="26.5254" rx="13.2627" transform="rotate(-34.0948 488.478 937.187)" fill="#323232"/>
<rect x="245.329" y="183.694" width="561.449" height="26.4526" rx="4.61311" transform="rotate(67.9052 245.329 183.694)" fill="#323232"/>
<path d="M851.688 412.274C913.196 468.759 917.319 564.354 860.897 625.792C804.476 687.231 708.876 691.247 647.369 634.762C585.862 578.278 581.738 482.683 638.16 421.244C694.581 359.806 790.181 355.79 851.688 412.274Z" fill="#B79FE8"/>
<path d="M990.276 602.618L735.423 935.133L626.721 875.207L763.555 477.631L990.276 602.618Z" fill="#FD63AA"/>
<path d="M661.371 749.949L813.795 833.977L742.925 935.173L614.317 864.274L661.371 749.949Z" fill="#BF3F7B"/>
<rect width="492.27" height="20.6221" rx="10.311" transform="matrix(-0.578056 0.815997 0.815997 0.578056 1008.39 545.03)" fill="#323232"/>
<rect x="801.218" y="430.821" width="492.144" height="20.6221" rx="10.311" transform="rotate(112.42 801.218 430.821)" fill="#323232"/>
<rect x="784.057" y="421.36" width="275.26" height="20.6221" rx="10.311" transform="rotate(28.8671 784.057 421.36)" fill="#323232"/>
<rect x="605.132" y="859.211" width="167.667" height="20.6221" rx="10.311" transform="rotate(28.8671 605.132 859.211)" fill="#323232"/>
<rect x="1040.98" y="424.541" width="436.498" height="20.5655" rx="3.58645" transform="rotate(130.867 1040.98 424.541)" fill="#323232"/>
<path d="M817.966 298.496L722.479 929.813H533.304L423.403 298.496H817.966Z" fill="#A6F1D2"/>
<path d="M487.388 737.139H752.652L732.52 924.347H508.704L487.388 737.139Z" fill="#95D9BC"/>
<rect width="750.246" height="31.4292" rx="15.7146" transform="matrix(-0.112281 0.993677 0.993677 0.112281 799.769 208.308)" fill="#323232"/>
<rect x="439.23" y="208.308" width="750.054" height="31.4292" rx="15.7146" transform="rotate(83.5532 439.23 208.308)" fill="#323232"/>
<rect x="409.364" y="208.308" width="419.512" height="31.4292" rx="15.7146" fill="#323232"/>
<rect x="492.721" y="924.348" width="255.533" height="31.4292" rx="15.7146" fill="#323232"/>
<rect x="754.61" y="23.5165" width="665.247" height="31.343" rx="5.46595" transform="rotate(102 754.61 23.5165)" fill="#323232"/>
</svg>
